<svg width="282" height="47" viewBox="0 0 282 47" fill="none" xmlns="http://www.w3.org/2000/svg">
<g clip-path="url(#clip0_4_109)">
<path d="M15.3948 6.8303L19.3117 2.9134H34.7131L37.375 5.57537V2.53312H39.0863V12.0402H37.375V7.93312L33.8765 4.43453H24.1412V31.8148H28.8948L31.7469 28.9627V19.2655H28.7046V17.7444H42.9652V19.2655H40.3032V33.3359H35.4736L32.6215 30.4458L29.7314 33.3359H19.3117L15.3948 29.419V6.8303ZM66.1609 13.2951L64.982 14.474L62.5482 12.0402H59.3158L56.6538 14.7021V31.8148H59.6961V33.3359H51.444L47.9074 29.7993V12.0402H44.8651V10.519H53.1172L55.8172 13.181L58.4792 10.519H63.3848L66.1609 13.2951ZM89.8934 14.4359V29.419L85.9765 33.3359H71.9822L68.0653 29.419V14.4359L71.9822 10.519H85.9765L89.8934 14.4359ZM77.192 12.0402V31.8148H80.7667V12.0402H77.192ZM133.087 12.0402H130.577L124.873 33.3359H116.164L112.666 20.2542L109.129 33.3359H100.421L94.7165 12.0402H92.1686V10.519H105.516V12.0402H103.425L108.216 29.9134L111.715 16.8317L110.46 12.0402H107.874V10.519H121.336V12.0402H119.169L123.96 29.9514L128.752 12.0402H125.367V10.519H133.087V12.0402ZM176.761 31.8148V33.3359H161.017V31.8148H165.086L161.892 21.9275H151.358L148.126 31.8148H152.005V33.3359H143.715V31.8148H146.3L155.693 2.9134H164.782L174.175 31.8148H176.761ZM161.398 20.4064L156.606 5.72749L151.853 20.4064H161.398ZM180.932 12.0402H177.889V10.519H186.142L188.842 13.181L191.504 10.519H200.402L203.939 14.0557V29.7993L200.402 33.3359H191.504L189.678 31.5106V44.3641H192.34V45.8852H184.468L180.932 42.3486V12.0402ZM189.678 14.7021V29.1528L192.34 31.8148H195.002V12.0402H192.34L189.678 14.7021ZM209.638 12.0402H206.596V10.519H214.848L217.548 13.181L220.21 10.519H229.109L232.646 14.0557V29.7993L229.109 33.3359H220.21L218.385 31.5106V44.3641H221.047V45.8852H213.175L209.638 42.3486V12.0402ZM218.385 14.7021V29.1528L221.047 31.8148H223.709V12.0402H221.047L218.385 14.7021ZM245.98 24.9697L261.838 19.5317L247.311 12.1923L247.767 8.54157L269.786 20.1402L245.486 28.7345L245.98 24.9697ZM245.562 30.0655H267.504L267.086 33.3359H245.067L245.562 30.0655Z" fill="#0F4534"/>
</g>
<defs>
<clipPath id="clip0_4_109">
<rect width="280.986" height="46.3158" fill="white" transform="translate(0.947357 0.526367)"/>
</clipPath>
</defs>
</svg>
